<svg version="1.1" id="Layer_1" xmlns="http://www.w3.org/2000/svg" xmlns:xlink="http://www.w3.org/1999/xlink" x="0px" y="0px"
	 width="100%" viewBox="0 0 512 512" enable-background="new 0 0 512 512" xml:space="preserve">
<path fill="#FFFFFF" opacity="1.000000" stroke="none" 
	d="
M152.000000,1.000000 
	C272.282013,1.000000 392.564056,1.000000 512.923035,1.000000 
	C512.923035,171.542526 512.923035,342.085114 512.923035,513.000000 
	C464.978638,513.000000 416.956299,513.000000 368.574829,512.655029 
	C383.257751,503.856995 398.368774,495.523865 413.326599,486.924225 
	C439.208710,472.043915 464.981079,456.972900 490.832458,442.039001 
	C497.776550,438.027527 504.611176,433.886078 507.044861,425.594482 
	C509.094391,418.611725 509.564270,411.236786 502.666016,407.020447 
	C497.243378,403.610718 492.143585,400.350586 487.005341,396.621155 
	C486.966888,392.116760 486.966888,388.081665 486.966888,384.046539 
	C486.516357,384.074005 486.065826,384.101440 485.615326,384.128906 
	C486.107086,388.439758 486.598846,392.750641 486.944824,397.505096 
	C486.827911,401.910583 486.936493,405.874451 486.837036,409.833099 
	C486.807220,411.020538 486.565002,412.825409 485.795105,413.273499 
	C479.289185,417.059570 472.638367,420.596649 465.978943,423.748291 
	C467.961517,411.190033 469.996185,399.091980 472.024658,387.004395 
	C472.018463,387.014832 472.004150,387.034424 472.241364,386.899841 
	C472.597961,386.432556 472.717346,386.099854 472.935242,385.432556 
	C476.956421,377.778229 480.903534,370.471375 484.770599,363.122406 
	C485.250427,362.210602 485.585175,361.055511 485.514221,360.046417 
	C484.730164,348.893890 483.876556,337.746033 482.992249,326.600830 
	C482.341675,318.401947 481.916229,310.170135 480.858887,302.022003 
	C479.134674,288.734955 477.116180,275.481567 474.968384,262.255127 
	C471.926361,243.522095 463.173462,227.726334 448.144775,216.244492 
	C439.258820,209.455673 429.035431,204.395706 419.319092,198.719833 
	C394.222687,184.059631 369.073853,169.489182 343.941772,154.422501 
	C343.935577,142.141312 343.998718,130.319656 343.847382,118.500771 
	C343.828857,117.054077 342.660889,115.622093 341.855225,113.882484 
	C340.461060,112.726097 339.291412,111.777550 338.005432,111.028709 
	C313.340698,96.665977 288.648163,82.350922 263.990143,67.976669 
	C230.158875,48.254894 196.329895,28.528887 162.564728,8.694401 
	C158.826477,6.498462 155.511353,3.582193 152.000000,1.000000 
z"/>
<path fill="#FFFFFF" opacity="1.000000" stroke="none" 
	d="
M356.000000,513.000000 
	C237.717468,513.000000 119.434944,513.000000 1.076206,513.000000 
	C1.076206,342.457428 1.076206,171.914841 1.076206,1.000000 
	C48.688034,1.000000 96.377037,1.000000 144.487488,1.345893 
	C144.485565,2.170348 144.150589,2.801421 143.626053,3.105372 
	C126.286354,13.153161 108.942589,23.194122 91.570084,33.185055 
	C64.432808,48.791710 37.263458,64.342682 10.157623,80.003647 
	C8.848314,80.760124 8.018566,82.346626 6.649220,83.879440 
	C6.222062,90.196022 6.013656,96.179794 6.015676,102.163498 
	C6.032326,151.469223 6.088028,200.774933 6.071371,250.542114 
	C6.054561,262.627014 5.901984,274.255646 6.207488,285.872253 
	C6.429999,294.333069 9.381669,302.010498 14.057119,309.102509 
	C22.502344,321.912689 36.105183,327.626923 48.850006,335.081177 
	C48.980381,336.959106 48.744156,338.511047 49.064217,339.938202 
	C53.434853,359.426483 61.195560,377.219604 76.395889,390.780457 
	C86.491661,399.787354 99.607292,405.377991 112.290321,396.882111 
	C112.755341,396.622467 112.952957,396.333008 113.378799,395.990509 
	C113.902557,395.758087 114.048698,395.495575 114.410049,395.079712 
	C121.186317,391.443909 127.597961,387.878326 134.068008,384.280243 
	C156.991058,397.486938 180.027573,410.759003 203.223053,424.385559 
	C205.936096,436.695831 208.948090,448.532043 215.064026,459.242706 
	C222.376053,472.048035 230.763138,483.836548 245.546188,489.139252 
	C253.150253,491.866852 260.359375,492.260162 267.287231,486.881195 
	C267.742126,486.629364 267.933929,486.343323 268.084290,486.047302 
	C268.042877,486.037323 268.067596,486.118896 268.430176,486.061554 
	C275.528748,482.280975 282.264709,478.557739 289.365448,474.905212 
	C300.322815,480.961517 310.906342,486.963196 321.511047,492.927246 
	C329.295959,497.305481 337.108643,501.634369 345.111023,506.274475 
	C348.875397,508.709167 352.437714,510.854584 356.000000,513.000000 
z"/>
<path fill="#EDEDED" opacity="1.000000" stroke="none" 
	d="
M6.965496,83.546600 
	C8.018566,82.346626 8.848314,80.760124 10.157623,80.003647 
	C37.263458,64.342682 64.432808,48.791710 91.570084,33.185055 
	C108.942589,23.194122 126.286354,13.153161 143.626053,3.105372 
	C144.150589,2.801421 144.485565,2.170348 144.954468,1.345893 
	C147.041672,1.000000 149.083328,1.000000 151.562500,1.000000 
	C155.511353,3.582193 158.826477,6.498462 162.564728,8.694401 
	C196.329895,28.528887 230.158875,48.254894 263.990143,67.976669 
	C288.648163,82.350922 313.340698,96.665977 338.005432,111.028709 
	C339.291412,111.777550 340.461060,112.726097 341.794159,114.205826 
	C341.159546,115.449875 340.487000,116.192810 339.661285,116.671654 
	C319.163300,128.558563 298.663788,140.442917 278.134155,152.275085 
	C252.720520,166.922134 227.279556,181.521820 201.521759,196.041763 
	C196.591385,193.274841 191.993561,190.601318 187.387299,187.942474 
	C147.506088,164.922012 107.611183,141.925247 67.746178,118.876801 
	C47.458641,107.147301 27.224028,95.326263 6.965496,83.546600 
z"/>
<path fill="#2E373D" opacity="1.000000" stroke="none" 
	d="
M356.460632,513.000000 
	C352.437714,510.854584 348.875397,508.709167 345.071991,505.811157 
	C344.864990,498.698486 344.899078,492.338348 345.296509,486.017059 
	C347.716675,487.123077 349.811951,488.122711 351.823120,489.269806 
	C358.435425,493.041168 365.192352,493.276367 371.754089,489.515594 
	C397.252838,474.901184 422.657684,460.123138 448.120697,445.446198 
	C464.090790,436.240997 480.108887,427.119080 496.090546,417.933868 
	C500.229706,415.554993 504.258514,413.043854 502.988800,407.170074 
	C509.564270,411.236786 509.094391,418.611725 507.044861,425.594482 
	C504.611176,433.886078 497.776550,438.027527 490.832458,442.039001 
	C464.981079,456.972900 439.208710,472.043915 413.326599,486.924225 
	C398.368774,495.523865 383.257751,503.856995 368.107849,512.655029 
	C364.307098,513.000000 360.614166,513.000000 356.460632,513.000000 
z"/>
<path fill="#FFD613" opacity="1.000000" stroke="none" 
	d="
M343.945984,154.882874 
	C369.073853,169.489182 394.222687,184.059631 419.319092,198.719833 
	C429.035431,204.395706 439.258820,209.455673 448.144775,216.244492 
	C463.173462,227.726334 471.926361,243.522095 474.968384,262.255127 
	C477.116180,275.481567 479.134674,288.734955 480.858887,302.022003 
	C481.916229,310.170135 482.341675,318.401947 482.992249,326.600830 
	C483.876556,337.746033 484.730164,348.893890 485.514221,360.046417 
	C485.585175,361.055511 485.250427,362.210602 484.770599,363.122406 
	C480.903534,370.471375 476.956421,377.778229 472.706909,385.574402 
	C472.254730,386.378723 472.129425,386.706573 472.004150,387.034424 
	C472.004150,387.034424 472.018463,387.014832 471.725952,387.160828 
	C466.047760,391.666626 461.044342,396.644714 455.197906,400.259338 
	C442.476593,408.124542 429.263733,415.189789 416.370941,422.784302 
	C407.249237,428.157410 397.864258,432.565918 386.602295,433.068115 
	C381.123047,432.936768 376.117371,432.843689 370.762909,432.562164 
	C367.644562,432.357117 364.874939,432.340515 361.763489,432.269897 
	C360.972565,432.128876 360.523529,432.041840 360.045471,431.504822 
	C359.645142,424.092316 359.635254,417.088104 358.837128,410.174866 
	C356.064117,386.155304 353.013184,362.167938 350.076294,338.167267 
	C346.913422,312.319519 333.275452,293.537750 311.090393,280.611145 
	C282.366547,263.874603 253.637543,247.145279 224.775925,230.648743 
	C220.859299,228.410095 216.161346,227.538467 212.041641,225.758362 
	C250.693771,203.367554 289.169739,181.321762 327.517792,159.055557 
	C332.747437,156.019043 337.882294,153.977554 343.945984,154.882874 
M361.136139,376.881714 
	C361.750366,381.322815 362.373199,385.762756 362.977112,390.205261 
	C364.418060,400.805664 373.420013,405.847809 382.624023,400.629639 
	C410.649109,384.740875 438.530579,368.597961 466.412720,352.458527 
	C471.854828,349.308411 475.804535,344.569153 475.866150,338.118256 
	C475.920929,332.383331 474.694458,326.636169 474.120453,320.015839 
	C473.739563,316.401123 473.449646,312.774139 472.962280,309.173828 
	C470.679718,292.313019 468.410889,275.449707 465.983582,258.609467 
	C465.261383,253.598846 462.857910,252.448059 457.314819,254.354172 
	C439.901062,264.598389 422.487305,274.842590 404.396118,285.240601 
	C390.372162,293.423187 376.379028,301.659241 362.309235,309.762299 
	C356.582581,313.060364 353.312469,317.735352 354.164276,324.395599 
	C356.369141,341.635651 358.842560,358.841400 361.136139,376.881714 
z"/>
<path fill="#CECECD" opacity="1.000000" stroke="none" 
	d="
M343.941772,154.422501 
	C337.882294,153.977554 332.747437,156.019043 327.517792,159.055557 
	C289.169739,181.321762 250.693771,203.367554 211.713898,225.815567 
	C208.133545,228.880188 205.097397,231.612091 202.033173,233.854462 
	C201.953522,220.957275 201.901962,208.549622 201.850403,196.141968 
	C227.279556,181.521820 252.720520,166.922134 278.134155,152.275085 
	C298.663788,140.442917 319.163300,128.558563 339.661285,116.671654 
	C340.487000,116.192810 341.159546,115.449875 341.964539,114.506638 
	C342.660889,115.622093 343.828857,117.054077 343.847382,118.500771 
	C343.998718,130.319656 343.935577,142.141312 343.941772,154.422501 
z"/>
<path fill="#252B2F" opacity="1.000000" stroke="none" 
	d="
M502.666016,407.020447 
	C504.258514,413.043854 500.229706,415.554993 496.090546,417.933868 
	C480.108887,427.119080 464.090790,436.240997 448.120697,445.446198 
	C422.657684,460.123138 397.252838,474.901184 371.754089,489.515594 
	C365.192352,493.276367 358.435425,493.041168 351.823120,489.269806 
	C349.811951,488.122711 347.716675,487.123077 345.275085,485.655579 
	C348.263855,483.497681 351.637421,481.740051 355.306763,480.192657 
	C357.699615,480.996857 359.796722,481.590790 362.162842,482.421326 
	C364.996735,482.129303 367.906830,482.205841 370.069611,480.972229 
	C382.517059,473.872589 394.787567,466.462769 407.462952,459.082031 
	C426.260620,448.245361 444.719574,437.495392 463.150360,426.697357 
	C464.227081,426.066589 465.076080,425.047089 466.031067,424.208496 
	C472.638367,420.596649 479.289185,417.059570 485.795105,413.273499 
	C486.565002,412.825409 486.807220,411.020538 486.837036,409.833099 
	C486.936493,405.874451 486.827911,401.910583 486.910828,397.476135 
	C487.022614,397.003571 487.043793,397.090454 487.043793,397.090454 
	C492.143585,400.350586 497.243378,403.610718 502.666016,407.020447 
z"/>
<path fill="#C9C9C5" opacity="1.000000" stroke="none" 
	d="
M465.978943,423.748291 
	C465.076080,425.047089 464.227081,426.066589 463.150360,426.697357 
	C444.719574,437.495392 426.260620,448.245361 407.313599,458.747620 
	C405.809631,456.217224 404.812500,453.939545 403.787994,451.674225 
	C400.187622,443.713470 397.444061,434.977142 387.075867,433.106384 
	C397.864258,432.565918 407.249237,428.157410 416.370941,422.784302 
	C429.263733,415.189789 442.476593,408.124542 455.197906,400.259338 
	C461.044342,396.644714 466.047760,391.666626 471.732147,387.150391 
	C469.996185,399.091980 467.961517,411.190033 465.978943,423.748291 
M430.652313,418.132294 
	C420.597504,423.934601 410.542725,429.736908 400.120758,435.751068 
	C401.826752,439.237823 403.273560,442.386047 404.884796,445.447723 
	C408.152313,451.656738 412.232147,452.914642 418.444397,449.416656 
	C430.770905,442.475891 443.091125,435.517395 455.245789,428.283691 
	C457.684784,426.832153 460.551727,424.424957 461.190033,421.937256 
	C463.084473,414.553711 463.965149,406.910065 465.440338,398.197479 
	C453.196625,405.235992 442.255219,411.525879 430.652313,418.132294 
z"/>
<path fill="#D9D7CB" opacity="1.000000" stroke="none" 
	d="
M487.056641,397.032532 
	C486.598846,392.750641 486.107086,388.439758 485.615326,384.128906 
	C486.065826,384.101440 486.516357,384.074005 486.966888,384.046539 
	C486.966888,388.081665 486.966888,392.116760 487.005341,396.621155 
	C487.043793,397.090454 487.022614,397.003571 487.056641,397.032532 
z"/>
<path fill="#C9C9C5" opacity="1.000000" stroke="none" 
	d="
M472.241333,386.899841 
	C472.129425,386.706573 472.254730,386.378723 472.608398,385.908997 
	C472.717346,386.099854 472.597961,386.432556 472.241333,386.899841 
z"/>
<path fill="#82A5B9" opacity="1.000000" stroke="none" 
	d="
M201.521759,196.041763 
	C201.901962,208.549622 201.953522,220.957275 202.036682,234.293259 
	C202.042252,265.856873 202.033798,296.492188 201.981171,327.127411 
	C201.961151,338.777527 201.839600,350.427429 201.460449,361.936096 
	C154.628983,335.047943 108.117233,308.273560 61.565990,281.568024 
	C43.133152,270.993439 24.612541,260.571899 6.131894,250.080658 
	C6.088028,200.774933 6.032326,151.469223 6.015676,102.163498 
	C6.013656,96.179794 6.222062,90.196022 6.649220,83.879440 
	C27.224028,95.326263 47.458641,107.147301 67.746178,118.876801 
	C107.611183,141.925247 147.506088,164.922012 187.387299,187.942474 
	C191.993561,190.601318 196.591385,193.274841 201.521759,196.041763 
z"/>
<path fill="#C98000" opacity="1.000000" stroke="none" 
	d="
M201.764328,362.077423 
	C201.839600,350.427429 201.961151,338.777527 201.981171,327.127411 
	C202.033798,296.492188 202.042252,265.856873 202.064774,234.782791 
	C205.097397,231.612091 208.133545,228.880188 211.497421,226.091064 
	C216.161346,227.538467 220.859299,228.410095 224.775925,230.648743 
	C253.637543,247.145279 282.366547,263.874603 311.090393,280.611145 
	C333.275452,293.537750 346.913422,312.319519 350.076294,338.167267 
	C353.013184,362.167938 356.064117,386.155304 358.837128,410.174866 
	C359.635254,417.088104 359.645142,424.092316 360.043976,431.586731 
	C360.071503,432.118591 360.070740,432.282257 359.750977,432.110962 
	C351.431915,427.438873 348.258240,429.318268 348.226715,438.600891 
	C348.205811,444.754791 348.339874,450.911621 348.194214,457.062134 
	C347.995087,465.467682 349.932953,473.176361 355.010986,479.982422 
	C351.637421,481.740051 348.263855,483.497681 344.911682,485.616760 
	C344.899078,492.338348 344.864990,498.698486 344.869934,505.521912 
	C337.108643,501.634369 329.295959,497.305481 321.511047,492.927246 
	C310.906342,486.963196 300.322815,480.961517 289.316101,474.569397 
	C284.601501,471.448090 280.301086,468.733307 276.011719,465.548981 
	C277.440491,438.135803 268.208374,415.325500 249.171936,396.410583 
	C237.460388,384.773773 227.681976,382.944458 212.654053,389.050659 
	C203.296524,384.926941 200.108505,378.048798 201.873123,368.467010 
	C202.251297,366.413452 201.821777,364.211182 201.764328,362.077423 
M260.030975,340.469482 
	C272.891449,349.965363 285.746338,359.468842 298.614166,368.954834 
	C309.337036,376.859680 319.961853,384.907318 330.906494,392.492981 
	C332.979614,393.929871 337.098724,394.723267 338.923218,393.606689 
	C341.046112,392.307526 341.822113,388.634369 342.890808,385.878296 
	C343.272064,384.895050 342.830170,383.578156 342.713531,382.418610 
	C341.514862,370.503387 339.977936,358.611298 339.173035,346.669769 
	C337.810303,326.453461 328.577972,311.292358 311.082214,301.212585 
	C284.398438,285.839294 257.663208,270.555176 230.928787,255.270035 
	C223.878876,251.239304 219.207611,253.876358 219.134247,261.960999 
	C219.040527,272.290070 218.959564,282.623566 219.157181,292.949707 
	C219.346313,302.833954 222.360199,311.736542 230.381332,318.055603 
	C239.923904,325.573273 249.758621,332.720062 260.030975,340.469482 
z"/>
<path fill="#242A2F" opacity="1.000000" stroke="none" 
	d="
M201.460449,361.936096 
	C201.821777,364.211182 202.251297,366.413452 201.873123,368.467010 
	C200.108505,378.048798 203.296524,384.926941 212.490723,389.321411 
	C205.694427,397.366028 203.688278,406.457367 203.940628,416.356659 
	C204.005615,418.905701 203.375092,421.472473 203.064087,424.031067 
	C180.027573,410.759003 156.991058,397.486938 134.068008,384.280243 
	C127.597961,387.878326 121.186317,391.443909 114.424347,394.708923 
	C118.061600,386.712830 121.125221,378.875000 121.105286,369.898315 
	C121.080933,358.929016 118.929489,348.451691 114.901428,338.411224 
	C108.688789,322.925354 100.076408,309.050323 85.431602,300.037842 
	C79.907921,296.638550 73.816376,294.114807 67.098923,295.519501 
	C56.953423,297.641052 52.301556,305.376892 50.280643,314.428986 
	C48.819584,320.973358 49.188972,327.926392 48.742035,334.697174 
	C36.105183,327.626923 22.502344,321.912689 14.057119,309.102509 
	C9.381669,302.010498 6.429999,294.333069 6.207488,285.872253 
	C5.901984,274.255646 6.054561,262.627014 6.071372,250.542114 
	C24.612541,260.571899 43.133152,270.993439 61.565990,281.568024 
	C108.117233,308.273560 154.628983,335.047943 201.460449,361.936096 
z"/>
<path fill="#2F383D" opacity="1.000000" stroke="none" 
	d="
M203.223038,424.385590 
	C203.375092,421.472473 204.005615,418.905701 203.940628,416.356659 
	C203.688278,406.457367 205.694427,397.366028 212.744812,389.554535 
	C227.681976,382.944458 237.460388,384.773773 249.171936,396.410583 
	C268.208374,415.325500 277.440491,438.135803 276.006653,465.944366 
	C273.349548,473.245819 270.708557,479.682343 268.067566,486.118896 
	C268.067596,486.118896 268.042877,486.037323 267.858521,486.115051 
	C267.369293,486.323181 267.152618,486.541260 267.024200,486.847015 
	C260.359375,492.260162 253.150253,491.866852 245.546188,489.139252 
	C230.763138,483.836548 222.376053,472.048035 215.064026,459.242706 
	C208.948090,448.532043 205.936096,436.695831 203.223038,424.385590 
M240.840927,414.453491 
	C230.850479,409.497284 223.981461,412.804077 222.858521,423.759430 
	C221.358902,438.389893 226.850937,450.510010 237.941711,459.972961 
	C241.549118,463.050903 245.962433,465.134949 250.863205,462.931793 
	C256.069550,460.591248 257.744080,455.744720 257.881317,450.594635 
	C258.268402,436.069305 253.051758,423.971863 240.840927,414.453491 
z"/>
<path fill="#2F373D" opacity="1.000000" stroke="none" 
	d="
M48.850006,335.081177 
	C49.188972,327.926392 48.819584,320.973358 50.280643,314.428986 
	C52.301556,305.376892 56.953423,297.641052 67.098923,295.519501 
	C73.816376,294.114807 79.907921,296.638550 85.431602,300.037842 
	C100.076408,309.050323 108.688789,322.925354 114.901428,338.411224 
	C118.929489,348.451691 121.080933,358.929016 121.105286,369.898315 
	C121.125221,378.875000 118.061600,386.712830 114.059731,394.779114 
	C114.048698,395.495575 113.902557,395.758087 113.149467,396.063110 
	C112.380028,396.320312 112.157021,396.541504 112.022919,396.852325 
	C99.607292,405.377991 86.491661,399.787354 76.395889,390.780457 
	C61.195560,377.219604 53.434853,359.426483 49.064217,339.938202 
	C48.744156,338.511047 48.980381,336.959106 48.850006,335.081177 
M90.046921,373.559845 
	C96.286583,373.792267 99.716469,371.445129 101.645256,365.622925 
	C106.109428,352.147461 96.492538,329.645081 83.623474,323.454041 
	C76.658157,320.103210 69.997597,322.493347 68.363739,329.972290 
	C67.231224,335.156403 67.058502,341.030731 68.292282,346.154755 
	C71.173759,358.121887 76.609390,368.691284 90.046921,373.559845 
z"/>
<path fill="#252A2E" opacity="1.000000" stroke="none" 
	d="
M268.430176,486.061554 
	C270.708557,479.682343 273.349548,473.245819 275.995605,466.413910 
	C280.301086,468.733307 284.601501,471.448090 288.951294,474.498657 
	C282.264709,478.557739 275.528748,482.280975 268.430176,486.061554 
z"/>
<path fill="#242A2F" opacity="1.000000" stroke="none" 
	d="
M112.290321,396.882111 
	C112.157021,396.541504 112.380028,396.320312 112.921249,396.116150 
	C112.952957,396.333008 112.755341,396.622467 112.290321,396.882111 
z"/>
<path fill="#252A2E" opacity="1.000000" stroke="none" 
	d="
M267.287231,486.881195 
	C267.152618,486.541260 267.369293,486.323181 267.899963,486.125031 
	C267.933929,486.343323 267.742126,486.629364 267.287231,486.881195 
z"/>
<path fill="#314E74" opacity="1.000000" stroke="none" 
	d="
M457.966919,254.217178 
	C462.857910,252.448059 465.261383,253.598846 465.983582,258.609467 
	C468.410889,275.449707 470.679718,292.313019 472.962280,309.173828 
	C473.449646,312.774139 473.739563,316.401123 474.027466,320.826721 
	C472.221741,327.420837 469.022675,332.074646 463.706726,335.128998 
	C436.656586,350.671234 409.636505,366.266083 382.543701,381.733643 
	C372.515717,387.458740 367.167267,385.916229 361.208740,376.060822 
	C358.842560,358.841400 356.369141,341.635651 354.164276,324.395599 
	C353.312469,317.735352 356.582581,313.060364 362.309235,309.762299 
	C376.379028,301.659241 390.372162,293.423187 404.924683,285.426514 
	C421.895508,297.709503 438.348724,309.791687 454.769287,321.918091 
	C457.557861,323.977386 460.867340,325.327759 463.298065,322.594879 
	C465.240845,320.410553 466.577789,316.912292 466.615814,313.976929 
	C466.685974,308.561371 465.542114,303.137085 465.017181,297.705505 
	C463.601501,283.056122 463.476746,268.201691 457.966919,254.217178 
z"/>
<path fill="#59718A" opacity="1.000000" stroke="none" 
	d="
M457.640869,254.285675 
	C463.476746,268.201691 463.601501,283.056122 465.017181,297.705505 
	C465.542114,303.137085 466.685974,308.561371 466.615814,313.976929 
	C466.577789,316.912292 465.240845,320.410553 463.298065,322.594879 
	C460.867340,325.327759 457.557861,323.977386 454.769287,321.918091 
	C438.348724,309.791687 421.895508,297.709503 405.263428,285.349609 
	C422.487305,274.842590 439.901062,264.598389 457.640869,254.285675 
z"/>
<path fill="#30393D" opacity="1.000000" stroke="none" 
	d="
M361.172424,376.471252 
	C367.167267,385.916229 372.515717,387.458740 382.543701,381.733643 
	C409.636505,366.266083 436.656586,350.671234 463.706726,335.128998 
	C469.022675,332.074646 472.221741,327.420837 473.984009,321.266022 
	C474.694458,326.636169 475.920929,332.383331 475.866150,338.118256 
	C475.804535,344.569153 471.854828,349.308411 466.412720,352.458527 
	C438.530579,368.597961 410.649109,384.740875 382.624023,400.629639 
	C373.420013,405.847809 364.418060,400.805664 362.977112,390.205261 
	C362.373199,385.762756 361.750366,381.322815 361.172424,376.471252 
z"/>
<path fill="#FEFEFE" opacity="1.000000" stroke="none" 
	d="
M386.602295,433.068115 
	C397.444061,434.977142 400.187622,443.713470 403.787994,451.674225 
	C404.812500,453.939545 405.809631,456.217224 406.968689,458.823669 
	C394.787567,466.462769 382.517059,473.872589 370.069611,480.972229 
	C367.906830,482.205841 364.996735,482.129303 362.185120,481.941101 
	C361.315857,464.910278 360.693298,448.596283 360.070740,432.282257 
	C360.070740,432.282257 360.071503,432.118591 360.072998,432.036682 
	C360.523529,432.041840 360.972565,432.128876 362.084991,432.482605 
	C365.536133,432.749756 368.323883,432.750183 371.111664,432.750610 
	C376.117371,432.843689 381.123047,432.936768 386.602295,433.068115 
z"/>
<path fill="#CFCDC9" opacity="1.000000" stroke="none" 
	d="
M370.762909,432.562134 
	C368.323883,432.750183 365.536133,432.749756 362.426849,432.536621 
	C364.874939,432.340515 367.644562,432.357117 370.762909,432.562134 
z"/>
<path fill="#CFCDC9" opacity="1.000000" stroke="none" 
	d="
M359.750977,432.110962 
	C360.693298,448.596283 361.315857,464.910278 361.916107,481.704529 
	C359.796722,481.590790 357.699615,480.996857 355.306763,480.192627 
	C349.932953,473.176361 347.995087,465.467682 348.194214,457.062134 
	C348.339874,450.911621 348.205811,444.754791 348.226715,438.600891 
	C348.258240,429.318268 351.431915,427.438873 359.750977,432.110962 
z"/>
<path fill="#30393F" opacity="1.000000" stroke="none" 
	d="
M430.983032,417.974030 
	C442.255219,411.525879 453.196625,405.235992 465.440338,398.197479 
	C463.965149,406.910065 463.084473,414.553711 461.190033,421.937256 
	C460.551727,424.424957 457.684784,426.832153 455.245789,428.283691 
	C443.091125,435.517395 430.770905,442.475891 418.444397,449.416656 
	C412.232147,452.914642 408.152313,451.656738 404.884796,445.447723 
	C403.273560,442.386047 401.826752,439.237823 400.120758,435.751068 
	C410.542725,429.736908 420.597504,423.934601 430.983032,417.974030 
z"/>
<path fill="#253B57" opacity="1.000000" stroke="none" 
	d="
M259.748871,340.248505 
	C249.758621,332.720062 239.923904,325.573273 230.381332,318.055603 
	C222.360199,311.736542 219.346313,302.833954 219.157181,292.949707 
	C218.959564,282.623566 219.040527,272.290070 219.134247,261.960999 
	C219.207611,253.876358 223.878876,251.239304 230.928787,255.270035 
	C257.663208,270.555176 284.398438,285.839294 311.082214,301.212585 
	C328.577972,311.292358 337.810303,326.453461 339.173035,346.669769 
	C339.977936,358.611298 341.514862,370.503387 342.713531,382.418610 
	C342.830170,383.578156 343.272064,384.895050 342.890808,385.878296 
	C341.822113,388.634369 341.046112,392.307526 338.923218,393.606689 
	C337.098724,394.723267 332.979614,393.929871 330.906494,392.492981 
	C319.961853,384.907318 309.337036,376.859680 298.614166,368.954834 
	C285.746338,359.468842 272.891449,349.965363 259.748871,340.248505 
z"/>
<path fill="#CACACB" opacity="1.000000" stroke="none" 
	d="
M241.136078,414.678833 
	C253.051758,423.971863 258.268402,436.069305 257.881317,450.594635 
	C257.744080,455.744720 256.069550,460.591248 250.863205,462.931793 
	C245.962433,465.134949 241.549118,463.050903 237.941711,459.972961 
	C226.850937,450.510010 221.358902,438.389893 222.858521,423.759430 
	C223.981461,412.804077 230.850479,409.497284 241.136078,414.678833 
M241.498810,451.230072 
	C245.893433,452.963989 248.071121,450.835297 249.152664,446.824310 
	C251.088501,439.645111 246.659424,428.884125 240.215698,425.090851 
	C235.694366,422.429291 231.515976,424.562012 231.001984,429.924408 
	C230.149094,438.822083 233.516479,445.815491 241.498810,451.230072 
z"/>
<path fill="#CACBCB" opacity="1.000000" stroke="none" 
	d="
M89.671028,373.456604 
	C76.609390,368.691284 71.173759,358.121887 68.292282,346.154755 
	C67.058502,341.030731 67.231224,335.156403 68.363739,329.972290 
	C69.997597,322.493347 76.658157,320.103210 83.623474,323.454041 
	C96.492538,329.645081 106.109428,352.147461 101.645256,365.622925 
	C99.716469,371.445129 96.286583,373.792267 89.671028,373.456604 
M82.093445,358.444702 
	C88.070389,363.048523 92.354721,362.615112 93.849625,357.255432 
	C95.918068,349.839417 91.465218,339.005066 84.730713,335.067963 
	C80.664810,332.690979 77.047546,334.067322 75.979401,338.637726 
	C74.244904,346.059296 77.006889,352.283447 82.093445,358.444702 
z"/>
<path fill="#647883" opacity="1.000000" stroke="none" 
	d="
M241.156769,451.085297 
	C233.516479,445.815491 230.149094,438.822083 231.001984,429.924408 
	C231.515976,424.562012 235.694366,422.429291 240.215698,425.090851 
	C246.659424,428.884125 251.088501,439.645111 249.152664,446.824310 
	C248.071121,450.835297 245.893433,452.963989 241.156769,451.085297 
z"/>
<path fill="#657883" opacity="1.000000" stroke="none" 
	d="
M81.824783,358.193726 
	C77.006889,352.283447 74.244904,346.059296 75.979401,338.637726 
	C77.047546,334.067322 80.664810,332.690979 84.730713,335.067963 
	C91.465218,339.005066 95.918068,349.839417 93.849625,357.255432 
	C92.354721,362.615112 88.070389,363.048523 81.824783,358.193726 
z"/>
</svg>